<svg width="13" height="10" viewBox="0 0 13 10" fill="none" xmlns="http://www.w3.org/2000/svg">
<path fill-rule="evenodd" clip-rule="evenodd" d="M12.9545 4.787C12.9264 4.71734 12.8818 4.65556 12.8245 4.607L8.69448 0.676996C8.46298 0.451252 8.09647 0.442525 7.85448 0.656996C7.74307 0.759521 7.67885 0.903442 7.67695 1.05484C7.67506 1.20624 7.73566 1.35172 7.84448 1.457L7.85448 1.467L10.9845 4.437H0.594481C0.386426 4.42456 0.188625 4.52849 0.0808392 4.70688C-0.0269464 4.88527 -0.0269464 5.10872 0.0808392 5.28711C0.188625 5.4655 0.386426 5.56944 0.594481 5.557H10.9845L7.85448 8.527C7.74307 8.62952 7.67885 8.77344 7.67695 8.92484C7.67506 9.07624 7.73566 9.22172 7.84448 9.327C8.07384 9.55204 8.43977 9.55645 8.67448 9.337C8.68448 9.337 8.68448 9.327 8.69448 9.327L12.8345 5.397C12.9958 5.23752 13.0434 4.9957 12.9545 4.787Z" fill="white"/>
</svg>
