<svg width="556" height="346" viewBox="0 0 556 346" fill="none" xmlns="http://www.w3.org/2000/svg">
<path opacity="0.5" d="M543.609 335.048C549.257 326.03 554.157 314.579 555.597 303.958C557.038 293.338 554.675 281.709 547.471 273.937C541.073 267.114 531.217 263.969 522.168 265.927C514.906 267.47 508.566 271.979 501.535 274.293C494.445 276.607 485.397 275.836 481.477 269.368C478.423 264.266 479.806 257.68 481.42 251.925C485.281 238.516 490.18 225.464 496.174 212.945C499.633 205.706 503.437 198.527 504.993 190.696C506.607 182.805 505.627 173.905 500.382 167.912C492.37 158.776 478.192 159.784 466.78 163.463C443.553 170.879 423.265 185.652 401.709 197.281C396.349 200.189 389.836 202.918 384.418 200.129C379.634 197.637 377.559 191.764 376.349 186.364C366.09 140.146 383.611 92.7995 388.568 45.6906C389.778 34.1804 390.181 22.0769 385.628 11.4567C384.13 7.95613 382.055 4.63359 378.942 2.55701C374.62 -0.35021 369.029 -0.35021 363.899 0.302431C350.24 2.08236 337.329 7.60014 325.398 14.7199C294.851 32.9345 270.99 61.354 253.007 92.6215C235.025 123.889 222.518 158.123 210.702 192.357C194.564 239.11 179.463 286.337 170.357 335.048H543.609Z" fill="#DBB6F8"/>
<path d="M307.434 234.032C297.071 241.691 284.051 245.98 269.812 245.064C256.206 244.175 242.731 241.118 229.118 241.735C164.044 244.688 128.881 320.65 63.4809 320.21C53.0514 320.14 42.1841 317.523 34.5728 310.399C-5.88758 272.502 68.6556 223.094 77.0276 188.901C79.1063 180.43 78.542 170.234 71.8219 164.691C53.5359 149.506 23.4251 140.522 38.9751 109.902C57.4987 73.3515 108.243 61.8859 145.337 62.2621C184.524 62.6627 224.706 73.8873 258.288 94.1111C285.843 110.702 323.208 141.219 329.949 174.573C334.824 198.356 324.947 221.037 307.434 234.032Z" fill="#DEFBFD"/>
<g clip-path="url(#clip0)">
<path d="M94.5089 325.529L89.4456 329.779L85.6949 323.779L90.0707 319.779C90.5708 320.279 91.0083 320.779 91.5709 321.217C92.0085 321.592 92.5086 321.967 92.8836 322.404C93.6338 323.342 93.6338 324.716 94.5089 325.529Z" fill="#FDB790"/>
<path d="M162.395 330.779L162.27 336.653C163.645 336.653 164.896 337.466 166.208 337.341C167.646 337.216 169.021 336.653 170.397 336.091L170.522 329.529C169.897 329.716 169.146 329.529 168.521 329.654C166.396 329.966 164.583 330.779 162.395 330.779Z" fill="#FDB790"/>
<path d="M129.848 103.206C133.411 106.893 137.849 109.705 142.6 111.455C141.975 105.893 142.475 100.144 143.975 94.769C143.85 95.144 138.162 91.4568 137.724 91.0818C136.286 89.8319 134.661 86.7071 132.973 86.1447C132.473 88.8319 133.036 91.8317 132.536 94.644C132.036 97.5813 131.16 100.519 129.848 103.206Z" fill="#F4976E"/>
<path d="M147.439 70.6789C153.447 76.464 151.279 90.6469 151.155 92.6997C151.032 94.7525 151.155 96.5564 149.545 97.8005C148.244 98.858 146.448 99.1691 144.776 99.1691C138.644 99.1069 133.132 95.1257 131.77 89.0295C129.726 87.9098 127.372 86.4791 126.133 84.4885C125.576 83.5555 125.266 82.3736 125.514 81.3161C125.824 80.2586 126.815 79.3255 127.93 79.4499C127.682 79.6365 127.248 78.9522 127.186 78.6412C127.001 75.9664 127.496 73.1671 129.106 71.0521C129.788 70.1813 130.655 69.4348 131.584 68.8749C136.415 65.8891 142.794 67.693 147.439 70.6789Z" fill="#FDB790"/>
<path d="M142.475 56.9594C145.35 57.8968 148.038 59.6467 150.226 61.834C151.664 63.3339 152.852 65.0838 153.289 67.0836C153.727 69.0835 153.227 71.2708 151.726 72.5207C151.039 73.0832 150.164 73.4581 149.226 73.6456C147.601 74.0206 145.85 74.0206 144.1 73.6456C142.35 73.2706 140.662 72.4582 138.912 72.5207C137.161 72.5832 135.349 74.0206 135.786 75.7705C136.036 76.8329 136.911 77.5828 137.662 78.3953C138.412 79.2077 138.974 80.4576 138.412 81.3325C137.787 82.27 136.349 82.0825 135.286 81.5825C134.223 81.0826 133.036 80.4576 131.973 80.8326C130.66 81.3325 130.41 83.1449 130.848 84.5823C131.285 86.0197 132.223 87.2696 132.536 88.707C128.535 89.4569 124.534 86.5821 121.534 83.4574C120.034 81.895 118.596 80.1451 117.783 78.1453C116.596 75.2705 116.783 71.9582 118.221 69.3334C119.596 66.7086 122.159 64.8338 125.034 64.0838C126.972 63.5839 129.098 63.5839 130.66 62.334C132.661 60.7091 133.036 57.4593 135.536 56.3969C137.537 55.772 140.474 56.2719 142.475 56.9594Z" fill="#34325F"/>
<path d="M463.32 338.778H204.715C200.589 338.778 197.214 335.403 197.214 331.279V72.7981C197.214 68.6734 200.589 65.2986 204.715 65.2986H463.258C467.384 65.2986 470.759 68.6734 470.759 72.7981V331.279C470.822 335.403 467.446 338.778 463.32 338.778Z" fill="#EBF0FF"/>
<path d="M358.179 189.028H211.862C209.101 189.028 206.862 191.266 206.862 194.028V288.863C206.862 291.624 209.101 293.863 211.862 293.863H358.179C360.94 293.863 363.179 291.624 363.179 288.863V194.028C363.179 191.266 360.94 189.028 358.179 189.028Z" fill="white"/>
<path d="M358.179 89.8088H211.862C209.101 89.8088 206.862 92.0474 206.862 94.8088V174.667C206.862 177.429 209.101 179.667 211.862 179.667H358.179C360.94 179.667 363.179 177.429 363.179 174.667V94.8088C363.179 92.0474 360.94 89.8088 358.179 89.8088Z" fill="white"/>
<path d="M470.822 85.2971V72.7981C470.822 68.6734 467.446 65.2986 463.32 65.2986H204.715C200.589 65.2986 197.214 68.6734 197.214 72.7981V85.2971H470.822Z" fill="#00305E"/>
<path d="M205.965 78.3602C207.657 78.3602 209.028 76.9891 209.028 75.2979C209.028 73.6067 207.657 72.2356 205.965 72.2356C204.273 72.2356 202.902 73.6067 202.902 75.2979C202.902 76.9891 204.273 78.3602 205.965 78.3602Z" fill="#4CB3EF"/>
<path d="M215.779 78.3602C217.471 78.3602 218.842 76.9891 218.842 75.2979C218.842 73.6067 217.471 72.2356 215.779 72.2356C214.088 72.2356 212.716 73.6067 212.716 75.2979C212.716 76.9891 214.088 78.3602 215.779 78.3602Z" fill="#D93F58"/>
<path d="M225.593 78.3602C227.285 78.3602 228.656 76.9891 228.656 75.2979C228.656 73.6067 227.285 72.2356 225.593 72.2356C223.902 72.2356 222.53 73.6067 222.53 75.2979C222.53 76.9891 223.902 78.3602 225.593 78.3602Z" fill="#F4976E"/>
<path d="M193.088 162.604C212.076 162.604 227.469 147.215 227.469 128.231C227.469 109.248 212.076 93.859 193.088 93.859C174.1 93.859 158.707 109.248 158.707 128.231C158.707 147.215 174.1 162.604 193.088 162.604Z" fill="#7774F7"/>
<path d="M227.469 128.981C227.469 128.731 227.469 128.481 227.469 128.231C227.469 121.732 225.656 115.67 222.53 110.483L192.275 129.044H227.469V128.981Z" fill="#4CB3EF"/>
<path d="M193.088 93.859C192.838 93.859 192.588 93.859 192.338 93.859V128.981L222.53 110.483C216.529 100.484 205.59 93.859 193.088 93.859Z" fill="#DBB7F8"/>
<path d="M172.647 330.029C178.523 307.593 183.711 286.032 182.024 263.534L167.959 194.726C158.707 195.664 150.081 201.351 145.58 209.475C141.017 217.6 141.454 228.349 144.705 237.036C149.643 250.285 154.519 263.471 159.457 276.72L160.457 330.841C162.333 332.278 168.084 331.279 172.647 330.029Z" fill="#2B3775"/>
<path d="M169.271 193.914C165.958 211.725 161.083 229.224 154.707 246.16C152.081 253.097 149.268 259.971 145.455 266.283C141.892 272.283 137.516 277.783 133.078 283.157C120.763 297.969 110.074 315.092 96.8844 329.091C93.5088 329.529 89.3831 322.342 87.3828 320.654C101.01 301.156 106.761 282.345 116.2 260.534C118.951 254.222 121.701 247.847 123.826 241.285C127.077 231.286 128.89 220.849 129.827 210.35C130.452 203.226 130.765 195.726 134.266 189.477C143.58 189.789 152.456 190.352 161.645 192.289C164.083 192.852 166.959 194.476 169.271 193.914Z" fill="#2B499E"/>
<path d="M91.3209 329.029C89.8832 326.841 88.383 324.654 86.9452 322.404L82.4445 323.092L75.8184 326.466L85.2574 342.715H95.8217C96.0092 341.715 95.8842 340.84 95.0091 340.278C94.1339 339.715 93.1337 339.465 92.1336 339.278C91.0709 339.028 89.9457 338.84 88.883 338.59L91.3209 329.029Z" fill="#C7CEE5"/>
<path d="M146.83 108.67C146.705 108.045 138.516 104.858 129.015 100.421C101.698 116.17 135.891 177.603 132.828 192.664C138.829 198.539 168.521 194.351 169.209 193.914C169.209 183.227 168.209 166.666 166.021 155.667C165.333 151.73 150.456 124.169 146.83 108.67Z" fill="#A3C2EF"/>
<path d="M160.145 343.84C159.832 340.903 160.207 337.903 161.208 335.091C163.02 336.216 165.271 336.528 167.396 336.091C169.459 335.653 171.397 334.341 172.584 332.591C175.522 336.778 180.336 339.09 185.087 340.965C185.774 341.215 186.462 341.528 186.899 342.09C187.337 342.653 187.399 343.59 186.837 344.028C186.774 344.028 186.899 344.09 186.899 344.09L160.145 343.84Z" fill="#A1ABCE"/>
<path d="M123.076 121.982C121.076 127.919 124.576 133.294 127.827 137.981C131.203 142.918 135.078 147.48 139.329 151.667C140.642 152.98 142.079 154.229 143.642 155.292C145.392 156.479 147.268 157.292 149.206 158.167C150.081 158.542 151.018 158.979 152.019 159.167C155.082 159.667 158.145 157.479 159.27 154.667C160.395 151.855 159.957 148.542 158.77 145.73C157.582 142.918 155.582 140.481 153.581 138.106C149.956 133.669 146.393 129.294 142.767 124.857C141.892 123.732 140.954 122.669 140.142 121.482C139.391 120.42 138.704 119.295 137.891 118.295C136.891 117.045 135.703 116.045 134.391 115.17C132.828 114.232 131.578 114.295 129.89 114.982C126.702 116.107 124.139 118.732 123.076 121.982Z" fill="#79A2D3"/>
<path d="M167.771 163.354C176.71 164.604 185.649 165.479 194.651 165.916C195.713 165.979 196.776 166.041 197.839 165.916C201.214 165.604 204.402 163.666 206.215 160.791C206.215 160.541 205.777 160.541 205.527 160.479C205.277 160.416 205.09 160.479 204.84 160.541C202.652 161.104 200.589 162.166 198.339 162.041C199.276 161.354 199.964 160.666 200.714 159.792C200.964 159.479 201.214 159.104 201.027 158.792C200.902 158.542 200.527 158.417 200.214 158.542C199.901 158.604 199.714 158.792 199.464 158.979C197.839 160.291 195.776 161.104 193.713 161.354C191.838 161.604 189.962 161.479 188.15 161.166C186.649 160.854 185.274 160.416 183.836 159.979C180.148 158.792 176.523 157.604 173.022 155.917C172.147 155.479 171.272 155.042 170.272 155.042C169.646 155.042 169.021 155.292 168.459 155.604C166.896 156.542 165.896 158.229 165.583 160.042C165.458 160.854 165.458 161.729 165.896 162.416C166.458 163.229 166.771 163.229 167.771 163.354Z" fill="#FDB790"/>
<path d="M154.957 160.916C160.145 163.041 164.958 164.041 171.459 163.916C171.459 161.041 172.459 157.167 174.022 154.792C173.585 155.479 161.27 147.605 158.395 145.043C155.394 142.418 149.956 145.105 148.643 149.355C147.643 152.542 148.518 158.292 154.957 160.916Z" fill="#79A2D3"/>
<path d="M146.149 82.6449C146.667 82.6449 147.086 81.9454 147.086 81.0825C147.086 80.2196 146.667 79.5201 146.149 79.5201C145.631 79.5201 145.211 80.2196 145.211 81.0825C145.211 81.9454 145.631 82.6449 146.149 82.6449Z" fill="#231F20"/>
<path d="M151.476 81.77C151.891 81.77 152.226 81.2104 152.226 80.52C152.226 79.8297 151.891 79.2701 151.476 79.2701C151.062 79.2701 150.726 79.8297 150.726 80.52C150.726 81.2104 151.062 81.77 151.476 81.77Z" fill="#231F20"/>
<path d="M146.086 76.5203C145.461 76.8328 144.773 77.2078 144.148 77.5203" stroke="#A7523F" stroke-width="2" stroke-miterlimit="10"/>
<path d="M149.789 75.9579C150.414 75.8954 151.101 76.0829 151.664 76.4579" stroke="#A7523F" stroke-width="2" stroke-miterlimit="10"/>
<path d="M145.85 90.5194C146.163 91.1443 146.851 91.5193 147.476 91.7693C148.101 92.0193 148.851 92.0193 149.539 92.0818" stroke="#A7523F" stroke-width="2" stroke-miterlimit="10"/>
<path d="M149.101 77.9577C149.101 79.0202 149.789 79.9576 150.414 80.8325C150.976 81.5825 151.539 82.3949 152.101 83.1448C152.477 83.7073 152.914 84.3322 152.914 85.0197C152.914 85.7071 152.414 86.3946 151.789 86.7071C151.164 87.0195 150.414 87.0195 149.726 86.7696" fill="#FDB790"/>
<path d="M449.892 332.259C449.566 334.343 448.328 336.166 447.026 337.795C445.788 339.358 444.485 340.79 443.052 342.158C442.01 343.135 440.902 344.177 440.772 345.61C441.163 345.935 441.749 345.805 442.205 345.545C446.7 343.526 451.064 341.181 455.168 338.511C457.904 336.753 460.575 334.799 462.139 331.998C462.334 331.738 462.464 331.412 462.464 331.087C462.464 330.696 462.204 330.37 462.008 330.045C459.598 326.463 453.67 318.452 451.26 314.935C449.631 316.108 443.834 320.992 443.834 320.992C443.834 320.992 448.719 327.374 449.175 328.156C449.827 329.458 450.152 330.826 449.892 332.259Z" fill="#FDB790"/>
<path d="M452.628 338.771C451.911 339.227 451.129 339.618 450.087 340.009C447.221 340.986 444.094 341.311 441.293 342.418C440.055 342.939 435.821 345.284 437.319 347.238C438.101 348.215 441.423 347.759 442.531 347.759C445.462 347.759 445.592 347.694 448.524 347.628L466.438 335.515L461.943 328.872C456.732 332.259 457.383 334.082 455.233 336.427C454.321 337.469 453.54 338.185 452.628 338.771Z" fill="#7774F7"/>
<path d="M397.127 344.177L412.305 334.017C412.566 331.608 412.5 328.612 412.305 326.202C415.823 326.007 419.34 325.616 422.793 325.095C422.011 330.044 422.011 335.059 422.663 340.009C419.731 342.614 415.627 343.005 411.784 343.786C409.048 344.372 406.247 344.958 403.511 345.545C402.338 345.805 401.166 346.066 399.993 345.935C398.821 345.805 397.778 345.154 397.127 344.177Z" fill="#FDB790"/>
<path d="M422.663 337.925L423.314 348.215L393.153 347.824L392.502 347.954C391.395 346.131 393.609 344.633 395.629 343.916C397.648 343.2 399.798 343.395 401.948 343.135C405.53 342.614 408.722 340.725 412.11 339.227C415.302 337.729 419.34 336.492 422.663 337.925Z" fill="#7774F7"/>
<path d="M425.268 188.851C429.307 198.946 430.024 210.082 428.981 220.893C427.939 231.704 425.203 242.255 422.532 252.74C421.685 256.061 421.034 259.383 420.187 262.704C429.828 270.519 437.776 280.353 443.378 291.36C444.42 293.444 445.397 295.593 446.374 297.677C448.784 303.147 451.781 310.832 453.866 316.498C450.869 319.234 447.873 321.187 444.29 323.011C433.085 306.143 417.321 290.318 404.488 274.687C400.579 269.933 396.671 264.788 395.368 258.731C394.586 255.15 394.782 251.372 394.977 247.725C395.954 230.467 396.866 213.143 397.844 195.885C406.507 192.889 416.148 190.675 425.268 188.851Z" fill="#79A2D3"/>
<path d="M392.691 136.296C390.107 137.087 387.329 137.681 385.326 139.527C383.129 141.506 382.29 144.869 383.194 147.771C383.323 148.101 383.452 148.431 383.646 148.695C384.099 149.156 384.745 149.288 385.391 149.42C388.686 149.948 392.045 149.75 395.211 148.958C397.602 148.365 399.992 147.376 401.866 145.727C403.74 144.078 405.161 141.704 405.29 139.197C405.419 137.153 404.256 132.932 401.672 132.866C400.38 132.866 398.765 134.053 397.602 134.581C396.051 135.174 394.371 135.768 392.691 136.296Z" fill="#FDB790"/>
<path d="M395.576 150.702C395.259 150.8 394.959 150.439 394.796 150.129C392.876 145.549 392.282 140.504 393.012 135.582C400.35 134.356 404.748 126.3 412.086 125.074C413.31 124.881 414.62 124.875 415.673 125.55C416.726 126.226 417.315 127.474 417.767 128.671C419.04 132.073 419.576 135.946 418.224 139.296C416.263 144.347 410.7 146.893 405.653 148.731C402.43 149.854 398.785 149.449 395.576 150.702Z" fill="#20306D"/>
<path d="M429.307 188.916C431.261 194.973 433.15 201.03 434.127 207.347C436.603 223.303 432.89 239.454 430.61 255.41C430.284 257.494 430.024 259.578 430.024 261.662C430.024 264.007 430.349 266.286 430.545 268.631C431.522 279.572 429.698 290.578 427.939 301.454C426.506 310.181 424.942 318.908 423.509 327.635L411.458 326.984C410.611 303.408 408.527 279.897 406.442 256.452C405.921 250.656 405.4 244.925 404.879 239.128C403.771 226.494 402.599 213.86 399.733 201.486C399.407 199.923 399.667 197.708 398.886 196.341C403.967 194.712 408.657 192.889 413.738 191.326C418.949 189.568 423.835 188.46 429.307 188.916Z" fill="#A3C2EF"/>
<path d="M418.233 126.46C421.62 125.418 425.138 124.441 428.656 124.311C432.173 124.181 435.952 125.093 438.622 127.437C442.27 130.759 443.117 136.164 443.052 141.114C442.922 148.017 441.358 154.79 439.795 161.433C438.101 168.402 436.342 175.435 433.932 182.208C432.955 185.009 431.782 187.874 429.568 189.893C428.069 189.568 426.18 189.698 424.682 189.893C420.969 190.219 417.321 190.935 413.738 192.042C411.393 192.759 409.048 193.671 406.703 194.387C403.511 195.299 400.189 195.885 397.388 197.578C396.671 187.484 396.801 177.389 398.299 167.36C398.69 164.624 399.211 161.889 399.016 159.154C398.755 155.311 397.062 151.404 398.104 147.626C399.081 143.979 400.775 140.788 403.185 137.923C405.595 135.057 408.462 132.517 411.328 129.977C413.478 128.089 415.627 126.135 418.363 125.223C418.233 125.549 418.233 126.07 418.233 126.46Z" fill="#2B499E"/>
<path d="M423.64 163.908C422.076 165.406 420.513 166.969 418.559 167.946C416.865 168.857 415.171 167.555 413.999 166.187C413.022 165.08 412.37 163.778 411.719 162.475C410.155 159.479 408.592 156.418 407.029 153.422C406.963 153.227 406.833 153.097 406.898 152.901C406.898 152.771 407.029 152.576 407.094 152.446C408.983 149.645 410.807 146.845 412.566 143.979C415.236 139.681 418.233 135.252 422.858 133.168C424.617 132.387 426.506 131.931 428.395 131.67C430.089 131.41 431.848 131.28 433.476 131.735C435.496 132.322 437.189 133.82 438.231 135.643C439.274 137.467 439.795 139.551 439.99 141.635C440.121 143.263 440.121 144.891 439.665 146.389C438.753 149.515 436.277 151.99 433.932 154.204C430.414 157.46 427.027 160.651 423.64 163.908Z" fill="#20306D"/>
<path d="M394.196 163.647C393.023 165.276 391.916 167.164 392.306 169.118C392.567 170.616 393.674 171.788 394.782 172.83C396.15 174.068 397.713 175.175 399.342 176.021C400.514 176.673 401.817 177.194 403.185 177.259C404.553 177.324 405.986 176.738 406.703 175.565C407.419 174.393 407.289 172.83 406.963 171.462C406.051 167.62 404.097 164.038 401.361 161.238C400.254 160.131 399.081 159.023 397.583 160C396.215 160.912 395.173 162.345 394.196 163.647Z" fill="#F4976E"/>
<path d="M406.377 155.832C402.859 160.326 399.277 164.885 396.997 170.095C396.541 171.137 396.085 172.309 396.215 173.481C396.345 175.305 397.713 176.803 399.342 177.519C401.036 178.17 402.925 178.04 404.618 177.454C406.312 176.868 407.875 175.891 409.309 174.849C412.435 172.57 415.302 169.899 417.907 167.034C418.363 166.578 418.754 166.057 419.015 165.471C419.275 164.885 419.275 164.234 419.275 163.582C419.21 159.935 417.321 156.549 414.585 154.139C413.543 153.227 411.654 151.534 410.155 151.794C408.592 152.055 407.289 154.66 406.377 155.832Z" fill="#FDB790"/>
<path d="M413.934 114.673C415.888 118.45 417.321 122.423 418.298 126.591C421.295 126.2 424.291 125.614 427.288 125.418C430.284 125.223 433.411 125.418 436.212 126.591C435.821 125.158 435.43 123.725 435.105 122.227C434.453 119.622 433.737 116.952 432.89 114.412C432.108 112.133 431.196 109.918 430.089 107.704C429.177 105.946 428.135 104.057 426.311 103.276C425.333 102.82 424.226 102.755 423.184 102.755C420.774 102.755 418.363 103.145 416.214 104.187C414.064 105.229 412.045 106.988 411.133 109.267C410.677 110.244 410.742 110.96 411.458 111.742C412.435 112.654 413.282 113.37 413.934 114.673Z" fill="#F4976E"/>
<path d="M418.296 81.6995C414.332 84.1991 411.571 88.162 408.924 92.0364C408.235 93.047 407.546 94.0576 407.11 95.2083C406.541 96.7283 406.324 98.6202 404.842 99.2928C404.53 99.4365 404.175 99.5436 403.993 99.797C403.885 99.9649 403.863 100.206 403.878 100.404C403.949 101.317 404.581 102.186 405.457 102.557C405.306 105.321 405.89 108.189 407.095 110.729C407.381 111.306 407.711 111.919 408.192 112.4C408.719 112.958 409.431 113.302 410.181 113.604C411.593 114.133 413.139 114.294 414.62 114.14C417.656 113.746 420.379 111.901 422.337 109.556C424.295 107.211 425.569 104.36 426.682 101.521C427.557 99.2593 428.385 96.9214 428.603 94.5108C428.802 92.3809 428.594 90.2026 427.954 88.1772C427.259 85.9566 426.008 83.8586 424.127 82.4874C422.242 81.0764 420.256 80.4315 418.296 81.6995Z" fill="#FDB790"/>
<path d="M424.608 81.9931C421.612 81.0162 418.42 80.0393 415.423 80.6255C412.622 81.1465 410.407 82.9049 409.17 85.1843C407.997 87.3986 407.932 90.1339 408.323 92.6738C412.753 88.8314 414.707 87.9196 418.55 86.2263C421.091 85.054 423.371 84.2725 424.608 81.9931Z" fill="#8A3622"/>
<path d="M412.14 96.7011L408.468 94.275C408.167 94.095 407.772 94.1468 407.59 94.4301C407.373 94.7049 407.436 95.0825 407.73 95.2968L411.445 97.6972C411.747 97.8772 412.142 97.8254 412.323 97.542C412.541 97.2672 412.441 96.8811 412.14 96.7011Z" fill="#A7523F"/>
<path d="M466.633 153.423C466.764 147.236 463.116 140.723 457.188 138.834C454.843 138.053 452.302 138.053 449.892 137.402C447.482 136.75 445.071 135.122 444.615 132.712C443.769 128.414 449.306 124.116 447.286 120.273C445.853 117.538 441.293 117.082 440.577 114.086C440.186 112.523 441.098 110.96 441.814 109.528C444.42 104.252 445.267 97.87 443.378 92.2691C439.274 80.1557 419.201 75.1159 411.384 83.2567C410.667 85.1453 409.634 89.6641 416.93 108.095C417.516 109.593 416.8 111.156 416.148 112.523C416.213 112.588 416.213 112.654 416.279 112.719C416.8 113.565 417.386 114.412 417.516 115.389C417.777 117.473 415.953 119.166 414.52 120.729C412.305 123.204 410.807 126.46 410.742 129.782C410.742 130.368 410.807 130.954 411.132 131.475C412.37 133.364 415.236 131.41 417.451 131.67C419.666 131.931 420.839 134.666 420.383 136.815C419.927 138.965 418.298 140.723 416.735 142.351C415.171 143.979 413.608 145.738 413.217 147.887C412.566 151.273 415.236 154.725 418.624 155.767C420.904 156.483 423.77 156.418 425.138 158.372C426.245 159.935 425.789 162.084 425.724 163.973C425.594 171.137 432.369 177.194 439.534 177.91C446.7 178.626 453.67 174.979 458.751 169.834C463.116 165.406 466.438 159.61 466.633 153.423Z" fill="#8A3622"/>
<path d="M339.694 117.676C339.645 118.23 339.658 118.767 339.923 119.234C340.187 119.702 340.811 120.002 341.279 119.737C341.111 120.595 342.034 121.488 342.913 121.244C342.686 121.645 342.825 122.147 343.118 122.472C343.473 122.779 343.902 122.863 344.376 122.867C345.45 122.839 346.448 122.293 347.365 121.701C347.707 121.471 347.986 121.258 348.15 120.875C348.36 120.412 348.284 119.892 348.082 119.407C347.313 117.12 345.107 115.501 342.723 114.945C342.071 114.787 340.847 114.518 340.261 115.086C339.863 115.602 339.726 117.059 339.694 117.676Z" fill="#F4976E"/>
<path d="M338.793 115.155C339.263 115.633 340.086 115.675 340.738 115.832C341.676 116.046 342.401 115.98 343.157 116.514C345.053 117.746 345.833 119.828 348.848 120.952C349.534 121.235 350.204 121.455 350.845 121.818C351.629 122.209 352.34 122.823 353.051 123.437C356.685 126.553 360.229 129.829 363.664 133.203C369.158 138.642 374.426 144.481 381.187 148.15C382.55 148.921 383.941 149.55 385.478 149.732C387.016 149.915 388.665 149.525 389.695 148.362C390.896 147.083 391.099 145.134 390.63 143.44C390.161 141.745 389.018 140.305 387.848 139.007C383.848 134.573 378.865 131.223 373.899 127.935C371.505 126.368 369.11 124.801 366.779 123.217C357.265 116.932 347.608 110.618 336.672 107.497C335.86 107.249 334.602 106.855 334.273 107.621C333.865 108.343 340.504 111.572 343.111 113.418C342.093 113.159 336.413 112.908 338.793 115.155Z" fill="#FDB790"/>
<rect x="245.239" y="195.58" width="32.3676" height="10.0244" rx="5" fill="#79A2D3"/>
<rect x="245.239" y="208.11" width="68.9116" height="10.0244" rx="5" fill="#FF5858"/>
<rect x="245.239" y="229.162" width="104.411" height="10.0244" rx="5" fill="#79A2D3"/>
<rect x="245.239" y="241.692" width="60.5587" height="10.0244" rx="5" fill="#FF5858"/>
<rect x="245.239" y="262.743" width="63.691" height="10.0244" rx="5" fill="#79A2D3"/>
<rect x="245.239" y="275.274" width="91.882" height="10.0244" rx="5" fill="#FF5858"/>
<circle cx="225.583" cy="206.812" r="11.2323" fill="#DCEBFD"/>
<circle cx="225.583" cy="240.509" r="11.2323" fill="#DCEBFD"/>
<circle cx="225.583" cy="274.206" r="11.2323" fill="#DCEBFD"/>
<ellipse cx="431" cy="101.726" rx="1" ry="1.5" transform="rotate(7.25319 431 101.726)" fill="#231F20"/>
</g>
<path d="M222.774 173.113C222.774 171.395 224.167 170.003 225.885 170.003H228.248C229.965 170.003 231.358 171.395 231.358 173.113C231.358 174.83 229.965 176.223 228.248 176.223H225.885C224.167 176.223 222.774 174.83 222.774 173.113Z" fill="#407FFE"/>
<path d="M247.935 165.166C247.935 162.795 249.857 160.874 252.227 160.874C254.597 160.874 256.518 162.795 256.518 165.166V171.931C256.518 174.302 254.597 176.223 252.227 176.223C249.857 176.223 247.935 174.302 247.935 171.931V165.166Z" fill="#407FFE"/>
<path d="M273.096 101.589C273.096 99.2185 275.018 97.2971 277.388 97.2971C279.758 97.2971 281.679 99.2185 281.679 101.589V171.931C281.679 174.302 279.758 176.223 277.388 176.223C275.018 176.223 273.096 174.302 273.096 171.931V101.589Z" fill="#407FFE"/>
<path d="M298.257 105.87C298.257 103.5 300.178 101.579 302.548 101.579C304.919 101.579 306.84 103.5 306.84 105.87V171.931C306.84 174.301 304.919 176.223 302.548 176.223C300.178 176.223 298.257 174.301 298.257 171.931V105.87Z" fill="#407FFE"/>
<path d="M323.418 160.238C323.418 157.868 325.339 155.946 327.709 155.946C330.079 155.946 332.001 157.868 332.001 160.238V171.931C332.001 174.302 330.079 176.223 327.709 176.223C325.339 176.223 323.418 174.302 323.418 171.931V160.238Z" fill="#407FFE"/>
<path d="M233.377 151.271C233.377 148.901 235.299 146.979 237.669 146.979C240.039 146.979 241.961 148.901 241.961 151.271V171.931C241.961 174.302 240.039 176.223 237.669 176.223C235.299 176.223 233.377 174.302 233.377 171.931V151.271Z" fill="#EDDBFC"/>
<path d="M258.538 140.365C258.538 137.995 260.46 136.073 262.83 136.073C265.2 136.073 267.121 137.995 267.121 140.365V171.931C267.121 174.302 265.2 176.223 262.83 176.223C260.46 176.223 258.538 174.302 258.538 171.931V140.365Z" fill="#EDDBFC"/>
<path d="M283.699 145.051C283.699 142.68 285.62 140.759 287.991 140.759C290.361 140.759 292.282 142.68 292.282 145.051V171.931C292.282 174.302 290.361 176.223 287.991 176.223C285.62 176.223 283.699 174.302 283.699 171.931V145.051Z" fill="#EDDBFC"/>
<path d="M308.86 157.168C308.86 154.798 310.781 152.876 313.151 152.876C315.522 152.876 317.443 154.798 317.443 157.168V171.931C317.443 174.302 315.522 176.223 313.151 176.223C310.781 176.223 308.86 174.302 308.86 171.931V157.168Z" fill="#EDDBFC"/>
<path d="M334.021 139.234C334.021 136.864 335.942 134.942 338.312 134.942C340.682 134.942 342.604 136.864 342.604 139.234V171.931C342.604 174.302 340.682 176.223 338.312 176.223C335.942 176.223 334.021 174.302 334.021 171.931V139.234Z" fill="#EDDBFC"/>
<defs>
<clipPath id="clip0">
<rect width="395.003" height="292.04" fill="white" transform="translate(75.8184 56.1119)"/>
</clipPath>
</defs>
</svg>
