<svg width="124" height="43" viewBox="0 0 124 43" fill="none" xmlns="http://www.w3.org/2000/svg">
<path d="M0 42.8572C0 42.8572 71.15 25.4572 123.85 37.7072L124 37.1572C124 37.1572 78 23.6072 0.9 40.1072L0 42.8572Z" fill="white"/>
<path d="M34.1 8.65723V11.5572C34.35 10.9572 34.7 10.2072 35.6 9.45723C36.55 8.65723 38 8.15723 39.35 8.15723C40.05 8.15723 40.75 8.25723 41.45 8.50723C43.65 9.35723 44.3 11.0572 44.55 11.8072C46.25 8.65723 49 8.15723 50.45 8.15723C52.25 8.15723 53.8 8.80723 54.85 9.85723C56.7 11.6572 56.8 13.6572 56.8 18.6072V30.0072H51.35V19.9072C51.35 16.5072 51.3 15.8072 50.7 14.8572C50.1 13.8572 49.25 13.6572 48.45 13.6572C46.95 13.6572 46.2 14.7072 46.1 14.9072C45.5 15.9572 45.5 17.7072 45.5 19.4572V30.0072H40V19.2572C40 16.9572 40 15.9072 39.45 14.9572C39.05 14.2572 38.2 13.6572 37.2 13.6572C36.7 13.6572 36.25 13.7572 35.8 14.0072C34.2 14.9072 34.15 16.4572 34.15 20.5072V29.9572H28.65V8.65723H34.1Z" fill="white"/>
<path d="M78.55 8.65723H84.1L78.55 30.0072H73.45L70.2 15.6072L67 30.0072H61.8L56.25 8.65723H61.8L64.75 22.0072L67.75 8.65723H72.6L75.6 22.0072L78.55 8.65723Z" fill="white"/>
<path fill-rule="evenodd" clip-rule="evenodd" d="M101.25 30.0072H95.9V27.6572C95.25 28.6572 94 30.4572 90.85 30.4572C86.25 30.4572 82.85 26.3572 82.85 19.6572C82.85 11.2572 87.6 8.10718 91.25 8.10718C93.35 8.10718 95.05 9.30718 96 11.3572V8.60718H101.25V30.0072ZM94.2 24.3072C95.35 22.9072 95.6 21.0572 95.6 19.1072C95.6 16.3572 94.95 14.9072 94.2 14.1572C93.65 13.5072 92.8 13.1072 92 13.1072C91 13.1072 89.95 13.7072 89.3 14.6572C88.35 16.0072 88.15 17.7072 88.15 19.3572C88.15 20.6572 88.3 21.9572 88.75 23.0072C89.5 24.8572 90.7 25.5072 91.8 25.5072C92.15 25.5072 93.25 25.4072 94.2 24.3072Z" fill="white"/>
<path d="M113.9 8.65718H119.45L113.35 29.8572C112.9 31.3572 112.2 33.7572 111.1 34.9572C110.1 36.0072 108.9 36.5072 104.45 36.5072C103.8 36.5072 103.55 36.4572 103 36.4072V31.6572H104.45C104.95 31.6572 106.2 31.6572 106.75 31.1072C107.2 30.7572 107.55 29.8072 107.55 28.9572C107.55 28.5072 107.35 27.6572 107.15 27.1572L101.2 8.60718H107.15L110.65 23.0072L113.9 8.65718Z" fill="white"/>
<path fill-rule="evenodd" clip-rule="evenodd" d="M3.79999 30.0072L12.95 0.857178H19.85L29.4 30.0072H22.6L20.85 23.8072H12.25L10.55 30.0072H3.79999ZM19.4 18.5072L16.45 7.25718L13.65 18.5072H19.4Z" fill="white"/>
</svg>
