<svg width="66" height="67" viewBox="0 0 66 67" fill="none" xmlns="http://www.w3.org/2000/svg">
<circle cx="33" cy="33.9797" r="33" fill="#7AB6FF"/>
<path d="M29.744 39.3637C29.5764 38.2239 29.6099 37.1847 29.8446 36.246C30.1128 35.3074 30.4815 34.4357 30.9509 33.6312C31.4202 32.8266 31.9398 32.0891 32.5097 31.4186C33.1131 30.7481 33.683 30.1112 34.2194 29.5077C34.7558 28.8708 35.1916 28.2674 35.5269 27.6974C35.8956 27.094 36.08 26.4738 36.08 25.8369C36.08 24.7976 35.7615 24.0098 35.1246 23.4734C34.5211 22.9371 33.7166 22.6689 32.7109 22.6689C31.7722 22.6689 30.9341 22.8868 30.1966 23.3226C29.4926 23.7584 28.8053 24.3115 28.1349 24.982L24.0617 21.2609C25.235 19.8864 26.6263 18.7801 28.2354 17.942C29.8781 17.1039 31.6884 16.6849 33.6663 16.6849C35.0072 16.6849 36.2476 16.8525 37.3874 17.1877C38.5608 17.523 39.5665 18.0426 40.4046 18.7466C41.2762 19.4506 41.9467 20.3557 42.416 21.462C42.9189 22.5348 43.1703 23.8087 43.1703 25.2837C43.1703 26.323 42.9859 27.2616 42.6171 28.0997C42.2484 28.9043 41.779 29.6586 41.2091 30.3626C40.6728 31.0666 40.0861 31.7538 39.4491 32.4243C38.8457 33.0613 38.2758 33.7317 37.7394 34.4357C37.2366 35.1397 36.8343 35.894 36.5326 36.6986C36.2309 37.4696 36.1303 38.358 36.2309 39.3637H29.744ZM32.9623 51.5832C31.6884 51.5832 30.6324 51.1474 29.7943 50.2757C28.9562 49.3706 28.5371 48.2643 28.5371 46.9569C28.5371 45.6159 28.9562 44.5096 29.7943 43.638C30.6324 42.7329 31.6884 42.2803 32.9623 42.2803C34.2362 42.2803 35.2922 42.7329 36.1303 43.638C37.0019 44.5096 37.4377 45.6159 37.4377 46.9569C37.4377 48.2643 37.0019 49.3706 36.1303 50.2757C35.2922 51.1474 34.2362 51.5832 32.9623 51.5832Z" fill="white"/>
</svg>
