<svg width="26" height="27" viewBox="0 0 26 27" fill="none" xmlns="http://www.w3.org/2000/svg">
<path fill-rule="evenodd" clip-rule="evenodd" d="M24.8378 24.3814L18.8024 17.9742C22.2167 13.5377 21.755 7.03847 17.7525 3.19581C13.7501 -0.646843 7.61249 -0.483327 3.79661 3.56762C-0.0192681 7.61857 -0.173296 14.1342 3.44637 18.3833C7.06604 22.6323 13.1882 23.1225 17.3672 19.4978L23.4 25.9078C23.7988 26.3231 24.4373 26.3231 24.8361 25.9078C25.2322 25.4862 25.233 24.8041 24.8378 24.3814ZM10.9764 19.7812C6.5103 19.7796 2.89074 15.9355 2.89122 11.1943C2.8917 6.45309 6.51203 2.60973 10.9781 2.60923C15.4441 2.60872 19.0653 6.45125 19.0667 11.1924C19.0619 15.9338 15.4425 19.7761 10.9764 19.7812Z" fill="white"/>
</svg>
