<svg width="40" height="24" viewBox="0 0 40 24" fill="none" xmlns="http://www.w3.org/2000/svg">
<path d="M28.0276 3.82547e-07C24.9376 0.000828054 22.1211 1.17447 19.9983 3.10211C17.874 1.17695 15.0591 0.00248361 11.9724 0.00248361C11.9468 0.00248361 11.9204 0.00248361 11.8956 0.00248361C5.32254 0.0455225 0 5.40387 0 11.9996C0 18.6218 5.36384 23.9959 11.9716 23.9959C15.0582 23.9959 17.8731 22.823 19.9967 20.8962C19.5532 20.4948 19.1517 20.0503 18.7726 19.5852H21.2447C20.8722 20.0429 20.4658 20.4716 20.0289 20.8706H20.0273C20.0173 20.8813 20.0066 20.888 19.9967 20.8971C22.1219 22.8255 24.9401 24.0008 28.0317 24C34.6436 23.9975 40.0017 18.6243 40 11.9996C40 11.9971 40 11.9954 40 11.9938C40.0008 5.36911 34.6395 -0.00165496 28.0276 3.82547e-07ZM18.9097 4.34114H21.1853C21.5206 4.74835 21.832 5.17709 22.1145 5.62569H18.0548C18.3167 5.19695 18.6041 4.7558 18.9097 4.34114ZM17.3478 6.8854H22.805C22.9991 7.30089 23.1709 7.73045 23.3212 8.17077H16.7011C16.7672 8.04662 16.9984 7.54671 17.3478 6.8854ZM4.88726 15.0553L5.61328 10.4684L3.97539 15.0553H3.09738L2.9834 10.4684L2.20781 15.0553H0.977947L1.99719 8.97196H3.85727L3.92252 12.7048L5.17882 8.97196H7.19666L6.19146 15.0553H4.88726ZM9.23598 15.0454L9.2781 14.5596C9.25828 14.5621 8.87008 15.1464 7.9706 15.1464C7.49979 15.1464 6.7399 14.889 6.7399 13.77C6.7399 12.3472 7.89791 11.8754 9.00058 11.8754C9.17403 11.8754 9.5482 11.9069 9.5482 11.9069C9.5482 11.9069 9.59032 11.82 9.59032 11.5849C9.59032 11.1984 9.24341 11.1454 8.76848 11.1454C7.93178 11.1454 7.3792 11.3697 7.3792 11.3697L7.56422 10.2689C7.56422 10.2689 8.23491 9.98752 9.10795 9.98752C9.55976 9.98752 10.859 10.0355 10.859 11.5278L10.3585 15.0454H9.23598ZM13.9795 13.496C13.9795 15.1936 12.3383 15.1207 12.0517 15.1207C10.9821 15.1207 10.6517 14.9726 10.6211 14.9643L10.7913 13.8469C10.7929 13.837 11.3282 14.0415 11.9237 14.0415C12.2673 14.0415 12.7133 14.0075 12.7133 13.5962C12.7133 12.9804 11.1175 13.1277 11.1175 11.6652C11.1175 10.3749 12.074 9.99745 13.0173 9.99745C13.7458 9.99745 14.1934 10.0976 14.1934 10.0976L14.0324 11.2249C14.0324 11.2249 13.341 11.1678 13.1618 11.1678C12.7084 11.1678 12.4614 11.2671 12.4614 11.5849C12.4606 12.2239 13.9795 11.911 13.9795 13.496ZM15.9503 13.9413C16.0634 13.9413 16.1915 13.9024 16.279 13.9024L16.1196 14.9875C15.9916 15.0231 15.629 15.1522 15.164 15.1555C14.5701 15.1605 14.148 14.8277 14.148 14.0729C14.148 13.5664 14.8724 9.39242 14.9005 9.36511H16.1749L16.0453 10.1117H16.6813L16.5185 11.3143H15.8437L15.4853 13.5299C15.458 13.7062 15.5067 13.9413 15.9503 13.9413ZM18.7536 9.97096C20.1528 9.97096 20.5716 10.9973 20.5716 11.839C20.5716 12.1759 20.4031 13.0036 20.4031 13.0036H17.8128C17.8128 13.0036 17.5733 14.0257 18.9419 14.0257C19.5837 14.0257 20.2957 13.7112 20.2957 13.7112L20.071 14.942C20.071 14.942 19.6597 15.1522 18.7247 15.1522C17.7112 15.1522 16.5227 14.7226 16.5227 12.9183C16.5235 11.3548 17.4717 9.97096 18.7536 9.97096ZM22.1293 18.3495H17.8822C17.6237 17.9356 17.3825 17.5111 17.1752 17.0649H22.8273C22.6191 17.5086 22.3862 17.9373 22.1293 18.3495ZM21.8444 15.0645H20.5361L21.3315 10.1133H22.5184L22.4044 10.8309C22.4044 10.8309 22.8273 10.0504 23.398 10.0504C23.5641 10.0504 23.6442 10.067 23.6442 10.067C23.4748 10.4129 23.3253 10.7299 23.1701 11.5485C22.2846 11.234 22.2169 12.9498 21.8444 15.0645ZM26.8291 14.9875C26.8291 14.9875 26.1436 15.1629 25.7141 15.1629C24.1926 15.1629 23.4203 14.111 23.4203 12.5177C23.4203 10.115 24.8517 8.8354 26.3228 8.8354C26.9877 8.8354 27.7583 9.14826 27.7583 9.14826L27.5502 10.5015C27.5502 10.5015 27.029 10.1365 26.3806 10.1365C25.5133 10.1365 24.7353 10.9658 24.7353 12.473C24.7353 13.2154 25.0979 13.9074 26.0031 13.9074C26.4335 13.9074 27.0571 13.5937 27.0571 13.5937L26.8291 14.9875ZM29.8976 15.0479L29.9405 14.5587C29.9199 14.5612 29.5317 15.1456 28.633 15.1456C28.1622 15.1456 27.4023 14.8882 27.4023 13.7691C27.4023 12.3464 28.5603 11.8746 29.6622 11.8746C29.8356 11.8746 30.2106 11.9061 30.2106 11.9061C30.2106 11.9061 30.2536 11.82 30.2536 11.5849C30.2536 11.1984 29.9067 11.1454 29.4309 11.1454C28.5942 11.1454 28.0425 11.3697 28.0425 11.3697L28.2275 10.2689C28.2275 10.2689 28.8982 9.98752 29.772 9.98752C30.223 9.98752 31.5231 10.0355 31.5223 11.5278L31.0217 15.0454C31.0209 15.0479 29.8976 15.0479 29.8976 15.0479ZM32.5465 15.0645H31.2381L32.0335 10.1133H33.2213L33.1073 10.8309C33.1073 10.8309 33.531 10.0504 34.1018 10.0504C34.2678 10.0504 34.3471 10.067 34.3471 10.067C34.1786 10.4129 34.0274 10.7299 33.873 11.5485C32.9867 11.234 32.919 12.9498 32.5465 15.0645ZM36.4525 15.0512L36.5078 14.5952C36.5078 14.5952 36.0849 15.1298 35.3201 15.1298C34.2603 15.1298 33.7408 14.1044 33.7408 13.0565C33.7408 11.4359 34.7138 10.0231 35.8817 10.0231C36.6334 10.0248 37.1132 10.6894 37.1132 10.6894L37.3891 8.98024L38.6669 8.97776L37.6922 15.0512H36.4525ZM38.9733 14.8799C38.9395 14.9411 38.8916 14.9883 38.8304 15.0247C38.7701 15.0587 38.7057 15.076 38.638 15.076C38.5719 15.076 38.5083 15.0587 38.4472 15.0247C38.3861 14.9883 38.3382 14.9411 38.3043 14.8799C38.2696 14.8178 38.2531 14.7549 38.2531 14.6879C38.2531 14.62 38.2704 14.5554 38.3043 14.4942C38.3382 14.4329 38.3885 14.3833 38.4488 14.3502C38.5116 14.3162 38.5736 14.2989 38.638 14.2989C38.7041 14.2989 38.7668 14.3162 38.8279 14.3502C38.8907 14.3841 38.9386 14.4313 38.9733 14.4942C39.0088 14.5563 39.0245 14.6208 39.0245 14.6879C39.0245 14.7549 39.008 14.8186 38.9733 14.8799Z" fill="white"/>
<path d="M9.10385 12.8248C8.16968 12.8248 7.98053 13.2456 7.98053 13.5959C7.98053 13.7765 8.08378 14.078 8.47941 14.078C9.24674 14.078 9.40615 13.0691 9.38137 12.8546C9.34503 12.8471 9.3219 12.8256 9.10385 12.8248Z" fill="white"/>
<path d="M18.7586 11.114C18.0639 11.114 17.9301 11.9066 17.9301 11.9903H19.345C19.345 11.9265 19.478 11.114 18.7586 11.114Z" fill="white"/>
<path d="M36.1022 11.2522C35.5414 11.2522 35.0979 11.9044 35.0987 12.8951C35.0987 13.4993 35.3134 13.8867 35.7727 13.8867C36.4632 13.8867 36.7961 12.9837 36.7961 12.3108C36.7961 11.5684 36.5607 11.2522 36.1022 11.2522Z" fill="white"/>
<path d="M38.9155 14.5274C38.8866 14.4761 38.8461 14.4363 38.7949 14.4073C38.7437 14.3783 38.6916 14.3642 38.6371 14.3642C38.5843 14.3642 38.5306 14.3791 38.4794 14.4073C38.4282 14.4338 38.3877 14.4752 38.3588 14.5274C38.3299 14.5796 38.315 14.6351 38.315 14.6889C38.315 14.7444 38.3299 14.7991 38.3571 14.8496C38.3877 14.901 38.4265 14.9399 38.4777 14.9706C38.5289 14.9987 38.5818 15.0153 38.6371 15.0153C38.6925 15.0153 38.747 14.9987 38.7965 14.9706C38.8478 14.9416 38.8874 14.9018 38.9171 14.8496C38.946 14.7983 38.9593 14.7444 38.9593 14.6889C38.9593 14.6343 38.9444 14.5796 38.9155 14.5274ZM38.7362 14.9018L38.6991 14.8372C38.6702 14.785 38.647 14.7519 38.6297 14.7395C38.6157 14.7287 38.5991 14.7237 38.5752 14.7237H38.5372V14.901H38.4678V14.4835H38.6124C38.6611 14.4835 38.6974 14.4876 38.7181 14.4968C38.7387 14.5042 38.7569 14.5183 38.7709 14.5365C38.785 14.5547 38.7899 14.5754 38.7899 14.5978C38.7899 14.6285 38.7784 14.6541 38.7569 14.6773C38.7354 14.7014 38.7057 14.7113 38.671 14.7154C38.6875 14.7221 38.6983 14.7295 38.7065 14.737C38.7239 14.7544 38.7437 14.7792 38.7676 14.819L38.8188 14.9018H38.7362Z" fill="white"/>
<path d="M29.7671 12.8248C28.8329 12.8248 28.6437 13.2456 28.6437 13.5959C28.6437 13.7765 28.7462 14.078 29.1426 14.078C29.9099 14.078 30.0685 13.0691 30.0446 12.8546C30.0074 12.8471 29.9843 12.8256 29.7671 12.8248Z" fill="white"/>
<path d="M38.7082 14.5687C38.7016 14.5604 38.6925 14.5538 38.6801 14.548C38.6661 14.5439 38.6454 14.5397 38.6124 14.5397V14.5406H38.5372V14.6665H38.619C38.6578 14.6665 38.6834 14.6615 38.6991 14.6491C38.7115 14.6366 38.7189 14.6209 38.7189 14.6027C38.7189 14.5886 38.7156 14.5803 38.7082 14.5687Z" fill="white"/>
</svg>
