<svg width="66" height="20" viewBox="0 0 66 20" fill="none" xmlns="http://www.w3.org/2000/svg">
<path d="M26.4268 0.332764L23.0726 19.7093H28.4371L31.7941 0.332764H26.4268Z" fill="white"/>
<path d="M18.5745 0.354508L13.3204 13.5688L12.7602 11.5735C11.724 9.16945 8.7823 5.71682 5.32874 3.54093L10.1331 19.6998L15.8095 19.6903L24.2578 0.350433L18.5745 0.354508Z" fill="white"/>
<path d="M10.7236 1.74122C10.4118 0.560911 9.508 0.209128 8.38625 0.167023H0.0689886L0 0.552762C6.47251 2.09843 10.7553 5.82271 12.5325 10.3008L10.7236 1.74122Z" fill="white"/>
<path d="M42.6666 4.04754C44.4217 4.02037 45.6938 4.39796 46.6817 4.78913L47.166 5.01324L47.8918 0.813581C46.8294 0.421051 45.164 0 43.0861 0C37.785 0 34.0486 2.62818 34.0196 6.39457C33.9851 9.17759 36.6812 10.7314 38.7177 11.6591C40.8081 12.6098 41.509 13.2143 41.4993 14.0632C41.4828 15.3603 39.8326 15.9552 38.2914 15.9552C36.143 15.9552 35.002 15.6632 33.24 14.9406L32.5487 14.6309L31.794 18.9677C33.0496 19.5097 35.3662 19.9756 37.7712 20C43.4103 20 47.075 17.4031 47.1136 13.3786C47.1371 11.1769 45.7062 9.49677 42.6059 8.11817C40.7294 7.21902 39.5814 6.62139 39.5925 5.71409C39.5925 4.90866 40.5666 4.04754 42.6666 4.04754Z" fill="white"/>
<path d="M61.6592 0.354492H57.5144C56.2271 0.354492 55.2695 0.699484 54.7038 1.96264L46.7384 19.7202H52.372C52.372 19.7202 53.2909 17.3324 53.4993 16.8095C54.116 16.8095 59.5896 16.8177 60.3692 16.8177C60.5292 17.4941 61.0232 19.7202 61.0232 19.7202H66L61.6592 0.354492ZM55.0432 12.8435C55.4848 11.7311 57.1805 7.42818 57.1805 7.42818C57.1515 7.48115 57.6179 6.30763 57.8952 5.57826L58.2567 7.24889C58.2567 7.24889 59.2847 11.875 59.4999 12.8435H55.0432Z" fill="white"/>
</svg>
